<svg xmlns="http://www.w3.org/2000/svg" stroke-width="0" viewBox="0 0 1500 500"><path fill="#200052" d="M0 0h1500v500H0z"/><g fill="#fff"><path d="M554.7 260c4.1 16-8.4 30-25 30s-29-13.8-25-30c2.6-10 15-25 25-50 10 25 22.5 40 25 50"/><path d="m410 310 21.2 34.3 21.1-34.3 4.7 41h15.6l-11-76.7-30.4 47.2-30.7-47.2-10.8 76.7h15.6zm85.8 4.5q0-7 2.9-12.5 3-5.3 8-8.5 5.1-3 11.9-3.1 6.9 0 12 3.1 5 3.2 8 8.5 2.7 5.4 2.7 12.5t-2.9 12.4q-2.8 5.5-7.9 8.6-5 3-12 3a22 22 0 0 1-11.8-3q-5-3.1-8-8.6t-3-12.5m-15.7 0a41 41 0 0 0 2.8 15.3A36 36 0 0 0 503 350q7 3 15.5 2.9 8.4 0 15.5-2.9a37 37 0 0 0 23.1-35.6q0-8.4-2.9-15.4a36 36 0 0 0-20.4-19.9 43 43 0 0 0-30.6 0 35 35 0 0 0-20.4 20q-2.8 7-2.8 15.2m140.6-36.5V323l-51.8-48.8V351h14.4v-45.2l51.9 48.9V278zm29.7 0v49q0 6.5 2 11.3a23 23 0 0 0 14.8 13.4 38 38 0 0 0 22.2 0q5.1-1.6 9-5 3.7-3.4 5.8-8.4 2.1-4.8 2.1-11.3V278h-14.9v48q0 6.4-3.2 10.1-3.3 3.9-9.8 3.8-6.6 0-9.7-3.8a16 16 0 0 1-3.3-10V278zm83.1 36.5a23 23 0 0 1 12-20.9q5.2-2.8 11.5-2.8a29 29 0 0 1 16.6 5q3.4 2.2 5.7 5v-16.8q-4.5-3.5-9.7-5.6-5.4-2-13.3-2-8.4 0-15.5 2.8a33 33 0 0 0-12.3 8.1 45 45 0 0 0-8.2 12 43 43 0 0 0 0 30.8q2.7 6.7 8.2 12.2t12.4 7.8a56 56 0 0 0 15.4 2.7q8 0 13.3-2a38 38 0 0 0 9.9-5.6v-16.8a30 30 0 0 1-13 8.7q-4.2 1.4-9.4 1.4-6.2 0-11.6-2.9-5.3-3-8.6-8.3a23 23 0 0 1-3.3-12.6m70.2 36.6h36.8v-12.7h-36.8zm0-60.5h36.8V278h-36.8zm0 27.9h34.7V306h-34.7zM794 278v73h14.3v-73zm53.8 13.5h19.6V351h15v-59.6H902V278h-54z" style="text-wrap-mode:nowrap" transform="translate(262 -4.8)scale(.81383)"/></g></svg>